<svg width="106" height="162" viewBox="0 0 106 162" fill="none" xmlns="http://www.w3.org/2000/svg">
<path d="M33.5523 106.767V100.702C33.5523 69.4937 73.066 68.1678 73.066 45.9217C73.066 36.2658 65.2087 29.9616 53.5332 29.9616C40.7344 29.9616 32.6622 36.9227 32.6622 46.7995V49.255C32.6622 51.7104 31.3118 52.8521 28.8441 52.8521L4.81789 51.9498C2.57733 51.9498 1.00586 50.8264 1.00586 49.255V46.7995C1.00586 19.6304 22.5582 1 54.2146 1C85.1958 1 105.164 18.5071 105.164 44.78C105.164 82.047 64.9754 82.2741 64.9754 102.703V106.748C64.9754 109.204 63.625 110.56 61.1573 110.56H37.3705C34.8967 110.579 33.5523 109.235 33.5523 106.767ZM31.5327 142.941C31.5327 133.064 40.2863 124.98 50.8384 124.98C60.9424 124.98 69.9231 133.064 69.9231 142.941C69.9231 152.818 60.924 160.872 50.6174 160.872C40.053 160.872 31.5327 152.793 31.5327 142.941Z" fill="#026902" stroke="#026902" stroke-miterlimit="10"/>
</svg>
